<svg xmlns="http://www.w3.org/2000/svg">
  <symbol id="logo" viewBox="0 0 532 118">
    <path d="M0 0.00878906H25.1515V52.3249H73.4495V0.00878906H98.4313V117.391H73.4495V70.273H25.1515V117.391H0V0.00878906Z" fill="white" />
    <path d="M117.551 104.81C109.167 96.4266 104.971 86.3369 104.971 74.5413C104.971 62.7457 109.167 52.656 117.551 44.2722C125.934 35.8883 136.024 31.6924 147.82 31.6924C159.615 31.6924 169.705 35.8883 178.089 44.2722C186.473 52.656 190.669 62.7457 190.669 74.5413C190.669 86.3369 186.473 96.4266 178.089 104.81C169.705 113.194 159.615 117.39 147.82 117.39C136.024 117.39 125.934 113.194 117.551 104.81ZM160.31 87.0403C163.771 83.58 165.509 79.4083 165.509 74.5494C165.509 69.6905 163.771 65.5269 160.31 62.0585C156.842 58.5983 152.679 56.8601 147.82 56.8601C142.961 56.8601 138.789 58.5983 135.329 62.0585C131.86 65.5269 130.13 69.6905 130.13 74.5494C130.13 79.4083 131.86 83.58 135.329 87.0403C138.789 90.5086 142.961 92.2387 147.82 92.2387C152.679 92.2387 156.842 90.5086 160.31 87.0403Z" fill="white" />
    <path d="M196.862 31.7009H222.013V42.2676C227.381 36.6811 233.558 33.2936 240.543 32.1213C247.528 30.949 254.239 31.9838 260.666 35.2258C267.093 38.4678 272.324 43.5531 276.342 50.4897C279.698 44.6768 284.031 40.0928 289.334 36.7376C294.646 33.3825 300.427 31.709 306.692 31.709C316.75 31.709 325.36 35.9049 332.515 44.2888C339.67 52.6726 343.243 62.7381 343.243 74.4771V117.407H318.092V74.4771C318.092 69.6747 316.354 65.5354 312.893 62.067C309.425 58.6068 305.237 56.8686 300.313 56.8686C295.39 56.8686 291.202 58.6068 287.734 62.067C284.265 65.5354 282.535 69.6667 282.535 74.4771V117.407H257.384V74.4771C257.384 69.6747 255.645 65.5354 252.185 62.067C248.717 58.6068 244.553 56.8686 239.694 56.8686C234.835 56.8686 230.664 58.6068 227.203 62.067C223.735 65.5354 222.005 69.6667 222.005 74.4771V117.407H196.854V31.717L196.862 31.7009Z" fill="white" />
    <path d="M360.359 104.809C351.975 96.4255 347.779 86.3601 347.779 74.6292C347.779 62.8982 351.975 52.8328 360.359 44.4489C368.743 36.0651 378.808 31.8691 390.539 31.8691C399.934 31.8691 408.366 34.6341 415.861 40.1721C423.347 45.7021 428.489 52.8328 431.286 61.5562L382.155 89.8931C386.287 92.2376 390.652 92.7712 395.237 91.4858C399.821 90.2003 403.289 87.4919 405.633 83.3525L427.6 95.9323C423.8 102.529 418.601 107.752 412.004 111.609C405.407 115.465 398.252 117.397 390.539 117.397C378.8 117.397 368.743 113.201 360.359 104.817V104.809ZM398.931 59.3652C394.905 57.4653 390.992 56.8266 387.192 57.433C383.392 58.0474 380.118 59.9473 377.385 63.1327C374.645 66.3181 373.222 70.037 373.109 74.2815L398.931 59.3571V59.3652Z" fill="white" />
    <path d="M467.684 58.695L432.977 0H462.154L482.277 34.0447L502.4 0H531.408L496.862 58.695L531.408 117.39H502.4L482.277 83.3452L462.154 117.39H432.977L467.684 58.695Z" fill="white" />
  </symbol>
</svg>
