<svg xmlns="http://www.w3.org/2000/svg" style="display; none">
    <symbol id="logo" viewBox="0 0 532 118">
        <path d="M0 0.00878906H25.1515V52.3249H73.4495V0.00878906H98.4313V117.391H73.4495V70.273H25.1515V117.391H0V0.00878906Z"
              fill="white"/>
        <path d="M117.551 104.81C109.167 96.4266 104.971 86.3369 104.971 74.5413C104.971 62.7457 109.167 52.656 117.551 44.2722C125.934 35.8883 136.024 31.6924 147.82 31.6924C159.615 31.6924 169.705 35.8883 178.089 44.2722C186.473 52.656 190.669 62.7457 190.669 74.5413C190.669 86.3369 186.473 96.4266 178.089 104.81C169.705 113.194 159.615 117.39 147.82 117.39C136.024 117.39 125.934 113.194 117.551 104.81ZM160.31 87.0403C163.771 83.58 165.509 79.4083 165.509 74.5494C165.509 69.6905 163.771 65.5269 160.31 62.0585C156.842 58.5983 152.679 56.8601 147.82 56.8601C142.961 56.8601 138.789 58.5983 135.329 62.0585C131.86 65.5269 130.13 69.6905 130.13 74.5494C130.13 79.4083 131.86 83.58 135.329 87.0403C138.789 90.5086 142.961 92.2387 147.82 92.2387C152.679 92.2387 156.842 90.5086 160.31 87.0403Z"
              fill="white"/>
        <path d="M196.862 31.7009H222.013V42.2676C227.381 36.6811 233.558 33.2936 240.543 32.1213C247.528 30.949 254.239 31.9838 260.666 35.2258C267.093 38.4678 272.324 43.5531 276.342 50.4897C279.698 44.6768 284.031 40.0928 289.334 36.7376C294.646 33.3825 300.427 31.709 306.692 31.709C316.75 31.709 325.36 35.9049 332.515 44.2888C339.67 52.6726 343.243 62.7381 343.243 74.4771V117.407H318.092V74.4771C318.092 69.6747 316.354 65.5354 312.893 62.067C309.425 58.6068 305.237 56.8686 300.313 56.8686C295.39 56.8686 291.202 58.6068 287.734 62.067C284.265 65.5354 282.535 69.6667 282.535 74.4771V117.407H257.384V74.4771C257.384 69.6747 255.645 65.5354 252.185 62.067C248.717 58.6068 244.553 56.8686 239.694 56.8686C234.835 56.8686 230.664 58.6068 227.203 62.067C223.735 65.5354 222.005 69.6667 222.005 74.4771V117.407H196.854V31.717L196.862 31.7009Z"
              fill="white"/>
        <path d="M360.359 104.809C351.975 96.4255 347.779 86.3601 347.779 74.6292C347.779 62.8982 351.975 52.8328 360.359 44.4489C368.743 36.0651 378.808 31.8691 390.539 31.8691C399.934 31.8691 408.366 34.6341 415.861 40.1721C423.347 45.7021 428.489 52.8328 431.286 61.5562L382.155 89.8931C386.287 92.2376 390.652 92.7712 395.237 91.4858C399.821 90.2003 403.289 87.4919 405.633 83.3525L427.6 95.9323C423.8 102.529 418.601 107.752 412.004 111.609C405.407 115.465 398.252 117.397 390.539 117.397C378.8 117.397 368.743 113.201 360.359 104.817V104.809ZM398.931 59.3652C394.905 57.4653 390.992 56.8266 387.192 57.433C383.392 58.0474 380.118 59.9473 377.385 63.1327C374.645 66.3181 373.222 70.037 373.109 74.2815L398.931 59.3571V59.3652Z"
              fill="white"/>
        <path d="M467.684 58.695L432.977 0H462.154L482.277 34.0447L502.4 0H531.408L496.862 58.695L531.408 117.39H502.4L482.277 83.3452L462.154 117.39H432.977L467.684 58.695Z"
              fill="white"/>
    </symbol>
    <symbol id="home" viewBox="0 0 20 20">
        <path d="M7.51602 2.36713L3.02435 5.86713C2.27435 6.45046 1.66602 7.69213 1.66602 8.63379V14.8088C1.66602 16.7421 3.24102 18.3255 5.17435 18.3255H14.8243C16.7577 18.3255 18.3327 16.7421 18.3327 14.8171V8.75046C18.3327 7.74213 17.6577 6.45046 16.8327 5.87546L11.6827 2.26713C10.516 1.45046 8.64102 1.49213 7.51602 2.36713Z"
              stroke="currentColor" stroke-width="1.5" stroke-linecap="round" stroke-linejoin="round" fill="none"/>
        <path d="M10 14.9912V12.4912" stroke="currentColor" stroke-width="1.5" stroke-linecap="round" stroke-linejoin="round" fill="none"/>
    </symbol>
    <symbol id="box" viewBox="0 0 20 20">
        <path d="M2.64258 6.2002L10.0009 10.4585L17.3092 6.22517" stroke="currentColor" stroke-width="1.5" stroke-linecap="round" stroke-linejoin="round" fill="none"/>
        <path d="M10 18.0085V10.4502" stroke="currentColor" stroke-width="1.5" stroke-linecap="round" stroke-linejoin="round" fill="none"/>
        <path d="M18.0088 7.64199V12.3587C18.0088 12.4004 18.0088 12.4337 18.0005 12.4753C17.4172 11.967 16.6672 11.667 15.8338 11.667C15.0505 11.667 14.3255 11.942 13.7505 12.4003C12.9838 13.0087 12.5005 13.9503 12.5005 15.0003C12.5005 15.6253 12.6755 16.217 12.9838 16.717C13.0588 16.8503 13.1505 16.9753 13.2505 17.092L11.7255 17.9337C10.7755 18.467 9.2255 18.467 8.2755 17.9337L3.82551 15.467C2.81717 14.9087 1.99219 13.5087 1.99219 12.3587V7.64199C1.99219 6.49199 2.81717 5.09201 3.82551 4.53368L8.2755 2.06699C9.2255 1.53366 10.7755 1.53366 11.7255 2.06699L16.1755 4.53368C17.1838 5.09201 18.0088 6.49199 18.0088 7.64199Z"
              stroke="currentColor" stroke-width="1.5" stroke-linecap="round" stroke-linejoin="round" fill="none"/>
        <path d="M19.1667 15.0003C19.1667 16.0003 18.725 16.892 18.0333 17.5003C17.4417 18.017 16.675 18.3337 15.8333 18.3337C13.9917 18.3337 12.5 16.842 12.5 15.0003C12.5 13.9503 12.9833 13.0087 13.75 12.4003C14.325 11.942 15.05 11.667 15.8333 11.667C17.675 11.667 19.1667 13.1587 19.1667 15.0003Z"
              stroke="currentColor" stroke-width="1.5" stroke-miterlimit="10" stroke-linecap="round" stroke-linejoin="round" fill="none"/>
        <path d="M16.0417 13.959V15.209L15 15.834" stroke="currentColor" stroke-width="1.5" stroke-miterlimit="10" stroke-linecap="round" stroke-linejoin="round" fill="none"/>
    </symbol>
    <symbol id="brush" viewBox="0 0 20 20">
        <g clip-path="url(#clip0_1122_9148)">
            <path d="M7.91732 16.2503V15.0003H3.75065C3.29232 15.0003 2.87565 14.817 2.57565 14.5087C2.26732 14.2087 2.08398 13.792 2.08398 13.3337C2.08398 12.4753 2.75065 11.7587 3.59232 11.6753C3.64232 11.667 3.69232 11.667 3.75065 11.667H16.2507C16.309 11.667 16.359 11.667 16.409 11.6753C16.809 11.7087 17.159 11.8837 17.4257 12.1587C17.7673 12.492 17.9507 12.967 17.909 13.4837C17.834 14.3587 17.0423 15.0003 16.159 15.0003H12.084V16.2503C12.084 17.4003 11.1507 18.3337 10.0007 18.3337C8.85065 18.3337 7.91732 17.4003 7.91732 16.2503Z"
                  stroke="currentColor" stroke-width="1.25" stroke-linecap="round" stroke-linejoin="round" fill="none"/>
            <path d="M16.8075 4.41699L16.4075 11.6753C16.3575 11.667 16.3075 11.667 16.2492 11.667H3.74916C3.69083 11.667 3.64083 11.667 3.59083 11.6753L3.19083 4.41699C3.04083 2.94199 4.19916 1.66699 5.67416 1.66699H14.3242C15.7992 1.66699 16.9575 2.94199 16.8075 4.41699Z"
                  stroke="currentColor" stroke-width="1.25" stroke-linecap="round" stroke-linejoin="round" fill="none"/>
            <path d="M6.6582 1.66699V5.83366" stroke="currentColor" stroke-width="1.25" stroke-linecap="round" stroke-linejoin="round" fill="none"/>
            <path d="M10 1.66699V3.33366" stroke="currentColor" stroke-width="1.25" stroke-linecap="round" stroke-linejoin="round" fill="none"/>
        </g>
        <defs>
            <clipPath id="clip0_1122_9148">
                <rect width="20" height="20" fill="white"/>
            </clipPath>
        </defs>
    </symbol>
    <symbol id="market" viewBox="0 0 20 20">
        <path d="M2.50781 9.34961V13.0913C2.50781 16.8329 4.00781 18.3329 7.74948 18.3329H12.2411C15.9828 18.3329 17.4828 16.8329 17.4828 13.0913V9.34961"
              stroke="currentColor" stroke-width="1.5" stroke-linecap="round" stroke-linejoin="round" fill="none"/>
        <path d="M9.99975 10.0003C11.5247 10.0003 12.6497 8.75866 12.4997 7.23366L11.9497 1.66699H8.05808L7.49975 7.23366C7.34975 8.75866 8.47475 10.0003 9.99975 10.0003Z"
              stroke="currentColor" stroke-width="1.5" stroke-linecap="round" stroke-linejoin="round" fill="none"/>
        <path d="M15.2577 10.0003C16.941 10.0003 18.1743 8.63366 18.0077 6.95866L17.7743 4.66699C17.4743 2.50033 16.641 1.66699 14.4577 1.66699H11.916L12.4993 7.50866C12.641 8.88366 13.8827 10.0003 15.2577 10.0003Z"
              stroke="currentColor" stroke-width="1.5" stroke-linecap="round" stroke-linejoin="round" fill="none"/>
        <path d="M4.70063 10.0003C6.07563 10.0003 7.3173 8.88366 7.45063 7.50866L7.63397 5.66699L8.03397 1.66699H5.4923C3.30897 1.66699 2.47563 2.50033 2.17563 4.66699L1.95063 6.95866C1.78397 8.63366 3.0173 10.0003 4.70063 10.0003Z"
              stroke="currentColor" stroke-width="1.5" stroke-linecap="round" stroke-linejoin="round" fill="none"/>
        <path d="M9.99935 14.167C8.60768 14.167 7.91602 14.8587 7.91602 16.2503V18.3337H12.0827V16.2503C12.0827 14.8587 11.391 14.167 9.99935 14.167Z"
              stroke="currentColor" stroke-width="1.5" stroke-linecap="round" stroke-linejoin="round" fill="none"/>
    </symbol>

</svg>
